@startuml
'https://plantuml.com/class-diagram
class Client {
    + main(Video)
}
class Video {
    + Video(Subsystem1, Subsystem2, Subsystem3)
    + Encode()
}
rectangle Encapsulation{
    class BitEncoder {
        + method1()
    }
    class BufferEncoder {
        + method2()
    }
    class Decoder {
        + method3()
    }
}


Client --> Video
Video ..> BitEncoder
Video ..> BufferEncoder
Video ..> Decoder
@enduml
